<?xml version="1.0" encoding="UTF-8"?><svg xmlns="http://www.w3.org/2000/svg" xmlns:xlink="http://www.w3.org/1999/xlink" version="1.1" id="Layer_1" x="0px" y="0px" viewBox="0 0 24 24" xml:space="preserve"><path fill="#69B342" d="M12 0C5.383 0 0 5.383 0 12s5.383 12 12 12 12-5.383 12-12S18.617 0 12 0z"/><path opacity="0.2" fill="#FFF" d="M12 .25c6.575 0 11.926 5.316 11.994 11.875 0-.042.006-.083.006-.125 0-6.617-5.383-12-12-12S0 5.383 0 12c0 .042.006.083.006.125C.074 5.566 5.426.25 12 .25z"/><path opacity="0.1" d="M12 23.75C5.425 23.75.074 18.434.006 11.875c0 .042-.006.083-.006.125 0 6.617 5.383 12 12 12s12-5.383 12-12c0-.042-.006-.083-.006-.125C23.926 18.434 18.574 23.75 12 23.75z"/><path fill="#FFF" d="M9.5 17.914l-5.5-5.5L5.414 11 9.5 15.086 17.586 7 19 8.414z" id="XMLID_1598_"/><linearGradient id="SVGID_1_" gradientUnits="userSpaceOnUse" x1="14.6074371" y1="13.5214996" x2="19.965147" y2="18.8792095"><stop offset="0" stop-color="#000" stop-opacity="0.1"/><stop offset="1" stop-color="#000" stop-opacity="0"/></linearGradient><path fill="url(#SVGID_1_)" d="M19 8.414l-9.5 9.5 5.652 5.652c4.674-1.276 8.22-5.302 8.77-10.23L19 8.413z"/><linearGradient id="SVGID_2_" gradientUnits="userSpaceOnUse" x1="1.1249185" y1="6.9288664" x2="22.875082" y2="17.0711346"><stop offset="0" stop-color="#FFF" stop-opacity="0.2"/><stop offset="1" stop-color="#FFF" stop-opacity="0"/></linearGradient><path fill="url(#SVGID_2_)" d="M12 0C5.383 0 0 5.383 0 12s5.383 12 12 12 12-5.383 12-12S18.617 0 12 0z"/><metadata><rdf:RDF xmlns:rdf="http://www.w3.org/1999/02/22-rdf-syntax-ns#" xmlns:rdfs="http://www.w3.org/2000/01/rdf-schema#" xmlns:dc="http://purl.org/dc/elements/1.1/"><rdf:Description about="https://iconscout.com/legal#licenses" dc:title="ui,interface,user,check" dc:description="ui,interface,user,check" dc:publisher="Iconscout" dc:date="2017-11-13" dc:format="image/svg+xml" dc:language="en"><dc:creator><rdf:Bag><rdf:li>Those Icons</rdf:li></rdf:Bag></dc:creator></rdf:Description></rdf:RDF></metadata></svg>